# xmcd
#
# Track frame offsets:
#	150
#	12810
#	27607
#	53445
#	68915
#	82132
#	95270
#	109510
#	124385
#	136607
#	149975
#	164760
#	182862
#	201985
#	215840
#	229195
#	246875
#
# Disc length: 3495 seconds
#
# Revision: 4
# Processed by: cddbd v1.5.2PL0 Copyright (c) Steve Scherf et al.
# Submitted via: audiograbber 1.83.01
#
DISCID=030da511
DTITLE=B.J. Thomas - The Very Best Of
DYEAR=1997
DGENRE=Oldies
TTITLE0=Hooked On A Feeling
TTITLE1=Raindrops Keep Fallin' On My Head
TTITLE2=Suspicious Minds
TTITLE3=Do What You Gotta Do
TTITLE4=Most Of All
TTITLE5=No Love At All
TTITLE6=Brown-Eyed Woman
TTITLE7=I Don't Know Any Better
TTITLE8=Everybody's Out Of Town
TTITLE9=I Just Can't Help Believing
TTITLE10=Mighty Clouds Of Joy
TTITLE11=Long Ago Tomorrow
TTITLE12=Rock And Roll Lullaby
TTITLE13=Roads
TTITLE14=Sweet Cherry Wine
TTITLE15=That's What Friends Are For
TTITLE16=Happier Than The Morning Sun
EXTD=
EXTT0=
EXTT1=
EXTT2=
EXTT3=
EXTT4=
EXTT5=
EXTT6=
EXTT7=
EXTT8=
EXTT9=
EXTT10=
EXTT11=
EXTT12=
EXTT13=
EXTT14=
EXTT15=
EXTT16=
PLAYORDER=
